<?xml version="1.0" encoding="UTF-8"?>
<svg id="Layer_1" data-name="Layer 1" xmlns="http://www.w3.org/2000/svg" viewBox="0 0 1005.78 657.56">
  <defs>
    <style>
      .cls-1 {
        fill: #e53b2b;
      }
    </style>
  </defs>
  <polygon class="cls-1" points="707.36 271.87 707.36 195.2 478.53 195.2 478.53 233.53 440.2 233.53 440.2 424.03 478.53 424.03 478.53 462.36 707.36 462.36 707.36 299.74 555.19 299.74 555.19 356.66 630.7 356.66 630.7 385.7 516.86 385.7 516.86 271.87 707.36 271.87"/>
  <path class="cls-1" d="M135.88,195.2v267.16h76.66v-76.66s152.16,0,152.16,0v-38.33s38.33,0,38.33,0v-113.83h-38.33s0-38.33,0-38.33h-228.82ZM326.37,309.03h-113.83s0-37.17,0-37.17h113.83s0,37.17,0,37.17Z"/>
  <rect class="cls-1" x="76.66" y="0" width="689.91" height="76.66"/>
  <rect class="cls-1" x="766.57" y="76.66" width="76.66" height="504.24"/>
  <polygon class="cls-1" points="0 580.9 76.66 580.9 76.66 657.56 766.57 657.56 766.57 619.23 766.57 619.23 766.57 580.9 766.57 580.9 766.57 580.9 76.66 580.9 76.66 76.66 0 76.66 0 580.9"/>
  <g>
    <path class="cls-1" d="M992.98,12.91V.11s-114.39,0-114.39,0v9.63s0,3.16,0,3.16h-12.8v9.32s0,0,0,0v79.86s3.47,0,3.47,0h.31s9.01,0,9.01,0v9.01s0,3.78,0,3.78h3.78s75.76,0,75.76,0h.31s0,0,0,0h25.2s9.32,0,9.32,0v-12.8s3.16,0,3.16,0h9.63s0-89.18,0-89.18h-12.8ZM980.57,102.09h-22.12s0,0,0,0h-.31s-12.17,0-12.17,0h-.31s-50.8,0-50.8,0h-3.47s0-3.47,0-3.47h0s0-38,0-38v-13.11s0-12.17,0-12.17v-.31s0,0,0,0v-12.79s0,0,0,0v-9.32s89.18,0,89.18,0v22.12s0,0,0,0v67.06Z"/>
    <path class="cls-1" d="M959.56,25.22l.39,8.95,9.4.83v26.69s-9.4.83-9.4.83l-.39,8.96h9.79s0,17.34,0,17.34l-1.33,1.33h-17.35s0-18.68,0-18.68h-27.58s0,18.68,0,18.68h-18.68s0-64.95,0-64.95h55.16ZM950.66,43.91h-27.58s0,8.9,0,8.9h27.58s0-8.9,0-8.9Z"/>
  </g>
</svg>